<?xml version="1.0" encoding="utf-8"?>
<svg xmlns="http://www.w3.org/2000/svg" xmlns:xlink="http://www.w3.org/1999/xlink" version="1.1" id="Layer_1" x="0px" y="0px" viewBox="0 0 24 24" style="enable-background:new 0 0 24 24;" xml:space="preserve">
<style type="text/css">
	.st0{fill:#303C42;}
</style>
<title>Skull</title>
<g id="Skull">
	<path class="st0" d="M12.5,1C6.7,1,2,4.8,2,9.5c0,0.4,0.2,0.7,0.4,1l-1.3,2.2C0.9,13,1,13.3,1.2,13.4c0,0,0,0,0,0   c0.6,0.3,1.2,0.8,1.2,1.1S2.3,15,2.3,15c-0.3,0.1-0.4,0.4-0.3,0.6c0,0,0,0,0,0l0.4,0.8l-0.4,0.8C2,17.4,2,17.4,2,17.5v0.7   c0,0.3,0.2,0.5,0.5,0.5l0,0c1.5,0,2.9-0.1,4.4-0.3c0.2,0,0.3-0.2,0.4-0.4c0-0.1,0.1-0.3,0.1-0.5c0-0.3-0.1-0.5-0.4-0.6   c0,0,0,0-0.1,0c-0.8,0-1.5-0.2-2.2-0.7c-0.2-0.2-0.3-0.5-0.1-0.7c0.2-0.2,0.5-0.3,0.7-0.1C5.8,15.8,6.4,16,7,16   c0.6,0,1.3-0.2,1.9-0.4c0.8-0.4,1.7-0.6,2.6-0.6c0.9,0.1,1.7,0.4,2.4,1c0.7,0.6,1.6,0.9,2.6,1c3.6,0,6.5-4.1,6.5-7.5   C23,4.8,18.3,1,12.5,1z M5.5,13C5.2,13,5,12.8,5,12.5c0-1-0.3-1.5-0.5-1.5C4.2,11,4,10.8,4,10.5S4.2,10,4.5,10C5.4,10,6,11,6,12.5   C6,12.8,5.8,13,5.5,13z M12.9,11.9c-1,0.8-2.3,1.2-3.6,1.1c-0.3,0-0.5,0-0.8,0c-0.2,0-0.4-0.2-0.4-0.4c-0.3-0.9-0.7-1.6-1.4-2.3   c-0.3-0.3-0.5-0.5-0.7-0.7C5.3,9.1,5,8.8,5,8s1.3-2.1,1.7-2.4c0.2-0.2,0.5-0.1,0.7,0.1c0.1,0.2,0.1,0.5-0.1,0.6C6.7,6.9,6,7.7,6,8   c0,0.3,0,0.4,0.6,1c0.2,0.2,0.4,0.4,0.7,0.7C8,10.3,8.5,11.1,8.9,12c1.2,0.1,2.3-0.2,3.3-0.9c0.2-0.2,0.5-0.2,0.7,0   S13,11.6,12.9,11.9L12.9,11.9z" style="fill: #303C42;"/>
	<path class="st0" d="M11.5,16c-0.8,0-1.6,0.2-2.3,0.5l-0.5,0.2c-0.2,0.1-0.3,0.2-0.3,0.4c0,0.7-0.2,1.4-0.6,2   c-0.1,0.1-0.9,0.5-5.4,0.6c-0.3,0-0.5,0.2-0.5,0.5v0.3C2,21.9,2.6,23,3.5,23c0.5,0,7.1-1.3,7.9-2.8c0.1-0.2,0.5-0.8,0.6-3.7   C12,16.2,11.8,16,11.5,16C11.5,16,11.5,16,11.5,16L11.5,16z" style="fill: #303C42;"/>
</g>

	<metadata>
		<rdf:RDF xmlns:rdf="http://www.w3.org/1999/02/22-rdf-syntax-ns#" xmlns:rdfs="http://www.w3.org/2000/01/rdf-schema#" xmlns:dc="http://purl.org/dc/elements/1.1/">
			<rdf:Description about="https://iconscout.com/legal#licenses" dc:title="skull; death; head; bone; anathomy" dc:description="skull; death; head; bone; anathomy" dc:publisher="Iconscout" dc:date="2017-02-21" dc:format="image/svg+xml" dc:language="en">
				<dc:creator>
					<rdf:Bag>
						<rdf:li>Alpár - Etele Méder</rdf:li>
					</rdf:Bag>
				</dc:creator>
			</rdf:Description>
		</rdf:RDF>
    </metadata></svg>
